<?xml version="1.0" encoding="UTF-8" standalone="no"?>
<!-- Created with Inkscape (http://www.inkscape.org/) -->

<svg
   width="9.9999065mm"
   height="9.9998903mm"
   viewBox="0 0 9.9999065 9.9998903"
   version="1.1"
   id="svg1"
   xml:space="preserve"
   sodipodi:docname="icon-white.svg"
   inkscape:version="1.4.3 (0d15f75042, 2025-12-25)"
   xmlns:inkscape="http://www.inkscape.org/namespaces/inkscape"
   xmlns:sodipodi="http://sodipodi.sourceforge.net/DTD/sodipodi-0.dtd"
   xmlns="http://www.w3.org/2000/svg"
   xmlns:svg="http://www.w3.org/2000/svg"><sodipodi:namedview
     id="namedview1"
     pagecolor="#505050"
     bordercolor="#eeeeee"
     borderopacity="1"
     inkscape:showpageshadow="0"
     inkscape:pageopacity="0"
     inkscape:pagecheckerboard="0"
     inkscape:deskcolor="#505050"
     inkscape:document-units="mm"
     inkscape:zoom="11.00677"
     inkscape:cx="13.355417"
     inkscape:cy="26.074862"
     inkscape:window-width="1311"
     inkscape:window-height="764"
     inkscape:window-x="1419"
     inkscape:window-y="2"
     inkscape:window-maximized="1"
     inkscape:current-layer="svg1" /><defs
     id="defs1" /><g
     id="layer1"
     transform="translate(-84.634536,-136.7673)"><g
       id="g11"
       transform="translate(7.1116218,2.0943723)"
       style="fill:#ffffff"><path
         id="path5-3"
         style="fill:#ffffff;fill-opacity:0.996078;stroke:#35b227;stroke-width:0;stroke-linecap:round;stroke-linejoin:round"
         d="M 82.523126 134.67293 C 79.761701 134.67293 77.522914 136.91172 77.522914 139.67314 C 77.522914 142.43456 79.761701 144.67283 82.523126 144.67283 C 85.284546 144.67283 87.522821 142.43456 87.522821 139.67314 C 87.522821 136.91172 85.284546 134.67293 82.523126 134.67293 z M 82.504006 135.66822 A 4 4 0 0 1 86.503761 139.66797 A 4 4 0 0 1 86.469138 140.193 C 86.247023 140.00029 85.99352 139.68157 85.795794 139.41166 C 85.601634 139.14665 85.257212 139.09823 85.010312 139.31502 L 84.043446 140.16407 A 0.34771315 0.34771315 0 0 1 83.498777 140.04934 L 82.381532 137.65259 C 82.261442 137.39494 82.031934 137.37382 81.862184 137.60091 C 81.113215 138.60283 79.18384 141.00893 78.534222 140.13719 C 78.533971 140.14386 78.533924 140.1507 78.533705 140.15735 A 4 4 0 0 1 78.503733 139.66797 A 4 4 0 0 1 82.504006 135.66822 z M 82.058555 137.91614 C 82.116192 137.91344 82.173361 137.96176 82.161908 138.03138 L 82.0353 139.30624 C 81.910717 140.06573 81.926569 140.84128 82.082326 141.59499 L 82.10403 141.69937 C 82.134976 141.84916 81.946664 141.94227 81.846165 141.82701 L 81.438954 141.35986 C 81.206134 141.09283 80.855743 140.95854 80.504128 141.00174 L 80.283986 141.02913 C 80.017066 141.06203 79.746286 141.047 79.484552 140.9852 L 79.306785 140.94335 C 79.242325 140.92813 79.228164 140.84214 79.284564 140.80744 L 79.675238 140.56714 C 80.191136 140.24945 80.564939 139.86563 80.93821 139.3884 L 81.986208 137.95438 C 82.005964 137.92913 82.032356 137.91737 82.058555 137.91614 z M 85.304351 139.54705 C 85.357891 139.54496 85.413355 139.57048 85.426308 139.61785 C 85.457058 139.73027 85.426647 139.97339 85.434059 140.13513 C 85.442859 140.32799 85.228675 140.43268 85.041835 140.48033 L 84.420684 140.63897 C 84.104417 140.70327 84.040291 140.57785 84.281158 140.36302 C 84.604829 140.07433 85.026021 139.70871 85.236655 139.56772 C 85.255902 139.55484 85.280015 139.548 85.304351 139.54705 z " /></g></g></svg>
